<?xml version="1.0" encoding="utf-8"?>
<!-- Generator: Adobe Illustrator 24.0.0, SVG Export Plug-In . SVG Version: 6.00 Build 0)  -->
<svg version="1.1" id="Layer_1" xmlns="http://www.w3.org/2000/svg" xmlns:xlink="http://www.w3.org/1999/xlink" x="0px" y="0px"
	 viewBox="0 0 360.2 191.6" style="enable-background:new 0 0 360.2 191.6;" xml:space="preserve">
<title>Jem Final Collateral</title>
<path d="M174.9,122.9c-3.1,7.7-7.6,13.7-13.1,17.6c-5.2,4-11.7,6.2-18.3,6.2c-18.4,0-34-16-34-36.5c0-19.2,14.1-37,33.6-37
	S177,89.9,177,110.9c0,1.8-0.1,3.7-0.5,5.5h-48.1c0.9,7.6,7.4,13.2,15,13c5.9,0,9-2.9,11.7-6.5L174.9,122.9z M157.9,102.4
	c-1.7-8-9.6-13.2-17.7-11.5c-5.7,1.2-10.2,5.7-11.5,11.5H157.9z"/>
<path d="M187.7,77.8h17.9v7.3h0.2c1.5-2.8,5.7-9.7,17.7-9.7c5.7,0,13.4,2.1,18.5,12.3c3.9-6.7,10.5-12.3,20.3-12.3
	c4.5,0,11.7,1.1,16.9,7c6,6.8,6.9,11.4,6.9,26.7v37.6H267v-36.7c0-5.6,0-15.3-9.8-15.3c-10.6,0-10.6,10.4-10.6,14.3v37.6h-19.2
	v-37.5c0-3.7,0-14.4-9.6-14.4c-10.9,0-10.9,11.2-10.9,15.3v36.6h-19.2V77.8z"/>
<path d="M321,146.7h-20v-21.1h20V146.7z"/>
<path d="M101,44.8v71.3c0,18.4-11.5,30.6-30.8,30.6c-18.5,0-28.2-11.4-30.9-28.2l19-4c1.5,8.5,5.4,13.1,11.6,13.1
	c5.9,0,10.7-3.9,10.7-12.5V62.4h-28V44.8H101z"/>
</svg>
